<svg width="59" height="53" viewBox="0 0 59 53" fill="none" xmlns="http://www.w3.org/2000/svg">
<path d="M29.6566 0C25.8032 0 21.9875 0.685443 18.4274 2.01719C14.8673 3.34894 11.6325 5.30092 8.9077 7.76167C3.40475 12.7314 0.313232 19.4718 0.313232 26.5C0.313232 33.5282 3.40475 40.2686 8.9077 45.2383C11.6325 47.6991 14.8673 49.6511 18.4274 50.9828C21.9875 52.3146 25.8032 53 29.6566 53C37.4389 53 44.9025 50.208 50.4055 45.2383C55.9084 40.2686 58.9999 33.5282 58.9999 26.5C58.9999 23.02 58.2409 19.574 56.7663 16.3589C55.2917 13.1438 53.1302 10.2224 50.4055 7.76167C47.6807 5.30092 44.4459 3.34894 40.8858 2.01719C37.3257 0.685443 33.51 0 29.6566 0ZM12.0506 13.25H47.2626V18.55H12.0506V13.25ZM12.0506 23.85H47.2626V29.15H12.0506V23.85ZM12.0506 34.45H47.2626V39.75H12.0506V34.45Z" fill="#F8F8F8"/>
</svg>
