<svg width="61" height="60" viewBox="0 0 61 60" fill="none" xmlns="http://www.w3.org/2000/svg">
<path d="M54.3892 0H6.38916C3.08916 0 0.38916 3.375 0.38916 7.5V52.5C0.38916 56.625 3.08916 60 6.38916 60H54.3892C57.6892 60 60.3892 56.625 60.3892 52.5V7.5C60.3892 3.375 57.6892 0 54.3892 0ZM53.1892 15.9375L33.5692 31.275C31.6192 32.8125 29.1592 32.8125 27.2092 31.275L7.58916 15.9375C7.28834 15.7264 7.02492 15.4412 6.81483 15.0992C6.60473 14.7572 6.45235 14.3654 6.36689 13.9476C6.28143 13.5299 6.26467 13.0948 6.31763 12.6687C6.37059 12.2425 6.49217 11.8343 6.675 11.4686C6.85784 11.103 7.09813 10.7875 7.38134 10.5412C7.66454 10.295 7.98477 10.1232 8.32265 10.0361C8.66052 9.94907 9.00901 9.94863 9.34702 10.0348C9.68504 10.121 10.0056 10.292 10.2892 10.5375L30.3892 26.25L50.4892 10.5375C50.7728 10.292 51.0933 10.121 51.4313 10.0348C51.7693 9.94863 52.1178 9.94907 52.4557 10.0361C52.7935 10.1232 53.1138 10.295 53.397 10.5412C53.6802 10.7875 53.9205 11.103 54.1033 11.4686C54.2862 11.8343 54.4077 12.2425 54.4607 12.6687C54.5137 13.0948 54.4969 13.5299 54.4114 13.9476C54.326 14.3654 54.1736 14.7572 53.9635 15.0992C53.7534 15.4412 53.49 15.7264 53.1892 15.9375Z" fill="#F8F8F8"/>
</svg>
